<svg xmlns="http://www.w3.org/2000/svg" viewBox="0 0 85 85"><defs><style>.cls-1{fill:#f0f2f2;}.cls-2{fill:#1289bd;}.cls-3,.cls-5{fill:#fff;}.cls-4,.cls-6{fill:none;}.cls-4,.cls-5,.cls-6{stroke:#1289bd;stroke-linecap:round;stroke-miterlimit:10;}.cls-4{stroke-width:1.22px;}.cls-5{stroke-width:1.46px;}.cls-6{stroke-width:1.28px;}</style></defs><g id="Layer_2" data-name="Layer 2"><g id="Layer_1-2" data-name="Layer 1"><circle class="cls-1" cx="42.5" cy="42.5" r="42.5"/><path class="cls-2" d="M30.51,47.76a2.57,2.57,0,0,1-2.58-2.58V22.87a2.58,2.58,0,1,1,5.15,0,11.16,11.16,0,0,1,0,22.31A2.92,2.92,0,0,1,30.51,47.76Z"/><path class="cls-3" d="M32.18,22v24a.64.64,0,0,0,1.28,0V22a.64.64,0,0,0-1.28,0Z"/><rect class="cls-4" x="43.81" y="30.81" width="3.86" height="6.44"/><path class="cls-2" d="M47.67,31.46V29.27A1.26,1.26,0,0,1,49,28h.21a1.26,1.26,0,0,1,1.29,1.23v9.17a1.27,1.27,0,0,1-1.29,1.24H49a1.27,1.27,0,0,1-1.29-1.24v-.82"/><polyline class="cls-4" points="50.75 31.9 56.47 31.9 56.68 48.85"/><polyline class="cls-4" points="50.75 36.2 53.18 36.2 53.25 48.85"/><path class="cls-5" d="M32.75,55.38H51.61A3.62,3.62,0,0,1,55.23,59v0a3.62,3.62,0,0,1-3.62,3.62H32.75a1,1,0,0,1-1-1V56.41A1,1,0,0,1,32.75,55.38Z"/><rect class="cls-6" x="29.91" y="56.16" width="2.07" height="5.68"/><rect class="cls-2" x="28.49" y="54.74" width="1.29" height="8.53"/><path class="cls-2" d="M57.3,59.41h5.77a.28.28,0,0,0,0-.55H57.3a.28.28,0,0,0,0,.55Z"/><path class="cls-2" d="M39.82,62V57.83a.78.78,0,0,0-1.56,0V62a.78.78,0,0,0,1.56,0Z"/><rect class="cls-2" x="55.36" y="57.71" width="1.81" height="2.58"/><path class="cls-2" d="M31.47,53.29l.13,11.42a.39.39,0,0,0,.77,0l-.13-11.42a.39.39,0,0,0-.77,0Z"/><path class="cls-2" d="M44.77,62V57.83a.78.78,0,0,0-1.56,0V62a.78.78,0,0,0,1.56,0Z"/><path class="cls-2" d="M49.72,62.14V57.93a.78.78,0,0,0-1.56,0v4.21a.78.78,0,0,0,1.56,0Z"/></g></g></svg>