<svg xmlns="http://www.w3.org/2000/svg" viewBox="0 0 85 85"><defs><style>.cls-1{fill:#f0f2f2;}.cls-2{fill:#1289bd;}.cls-3{fill:#fff;}</style></defs><g id="Layer_2" data-name="Layer 2"><g id="Layer_1-2" data-name="Layer 1"><circle class="cls-1" cx="42.5" cy="42.5" r="42.5"/><path class="cls-2" d="M58.59,67.45l-15-9.13a2,2,0,0,0-2.53,0L26.42,67.4a2,2,0,0,1-3.27-1.54V19.1a2,2,0,0,1,2-2h34.7a2,2,0,0,1,2,2V65.9A2,2,0,0,1,58.59,67.45Z"/><circle class="cls-3" cx="42.5" cy="47.49" r="3.87"/><path class="cls-3" d="M43.45,40.58H41.68a1.92,1.92,0,0,1-1.62-1.85l-1.58-15c-.11-1,1-1.85,2.4-1.85h3.24c1.43,0,2.52.83,2.41,1.85l-1.47,15A1.9,1.9,0,0,1,43.45,40.58Z"/></g></g></svg>