<svg xmlns="http://www.w3.org/2000/svg" viewBox="0 0 85 85"><defs><style>.cls-1{fill:#f0f2f2;}.cls-2{fill:#1289bd;}</style></defs><g id="Layer_2" data-name="Layer 2"><g id="Layer_1-2" data-name="Layer 1"><circle class="cls-1" cx="42.5" cy="42.5" r="42.5"/><g id="Layer_1-2-2" data-name="Layer 1-2"><path class="cls-2" d="M68.12,31.8a1.91,1.91,0,0,0-1.9-1.9H59.76a1.9,1.9,0,0,1-1.9-1.9V21.53a1.93,1.93,0,0,0-1.9-1.9H52.91a1.92,1.92,0,0,0-1.9,1.9V28a1.9,1.9,0,0,1-1.9,1.9H42.64a1.92,1.92,0,0,0-1.9,1.9v3a1.93,1.93,0,0,0,1.9,1.91h6.47a1.9,1.9,0,0,1,1.9,1.9v6.46a1.91,1.91,0,0,0,1.9,1.9H56a1.91,1.91,0,0,0,1.9-1.9V38.65a1.9,1.9,0,0,1,1.9-1.9h6.46a1.91,1.91,0,0,0,1.9-1.91Z"/></g><path class="cls-2" d="M16.88,58.93A34.32,34.32,0,0,1,36.12,63.5a11.18,11.18,0,0,0,3.16,1.31c1.1.25,2.21.45,3.32.63a62.54,62.54,0,0,0,7.33.84c4.08.18,8.11-1.56,11.44-3.82a17.88,17.88,0,0,0,4-3.58c.66-.82,1.47-2,1.09-3.12-.52-1.51-2.44-1.27-3.65-1-2.93.68-5.48,2.83-8.54,2.63-1.21-.07-1.21,1.81,0,1.88a7.77,7.77,0,0,0,3.21-.36c1.38-.51,2.65-1.27,4-1.78A11.11,11.11,0,0,1,64,56.45c.21,0,.43,0,.64,0s0,0,.08-.06,0-.07,0-.08-.11.37-.18.51a5.42,5.42,0,0,1-1,1.35,18.78,18.78,0,0,1-4.12,3.31A21.6,21.6,0,0,1,53.57,64a13.17,13.17,0,0,1-4.43.34,66.92,66.92,0,0,1-6.91-.88c-.93-.16-1.86-.34-2.79-.55A15.39,15.39,0,0,1,36,61.28a35.43,35.43,0,0,0-19.08-4.23c-1.21.08-1.21,2,0,1.88Z"/><path class="cls-2" d="M18,46.24c2.6,1.2,5.23,1.79,8,.83,2.35-.81,4.5-2.06,7.05-2.17s5.92.71,7.25,3.1a14,14,0,0,0,5,4.7c1.88,1.23,5.51,3.22,4.57,6l.91-.69c-1.84.22-3.45-.65-5-1.56-1.73-1-3.38-2.18-5.21-3-1.09-.51-2,1.11-1,1.63,3.46,1.62,7,5.34,11.15,4.85a1,1,0,0,0,.9-.69c1.9-5.57-6.49-7.66-9.06-11a16.48,16.48,0,0,0-1.83-2.63,10.24,10.24,0,0,0-4.62-2.21,13.23,13.23,0,0,0-7.76.76,27.25,27.25,0,0,1-3.89,1.47A8.53,8.53,0,0,1,19,44.62c-1.09-.5-2.05,1.12-.95,1.62Z"/></g></g></svg>