<svg xmlns="http://www.w3.org/2000/svg" viewBox="0 0 85 85"><defs><style>.cls-1{fill:#f0f2f2;}.cls-2{fill:#1289bd;}.cls-3{fill:#fff;}</style></defs><g id="Layer_2" data-name="Layer 2"><g id="Layer_1-2" data-name="Layer 1"><circle class="cls-1" cx="42.5" cy="42.5" r="42.5"/><path class="cls-2" d="M35.9,40.67c-.88,0-.71.84-2.71,1.91A22.09,22.09,0,0,1,28.89,44,16,16,0,0,0,26,45c-.58.36-.83.71-2.55,3.18a27.06,27.06,0,0,0-.79,4,17.71,17.71,0,0,0-.16,4.62C23.67,61.6,40,61.68,43.71,61.7c5.2,0,19.2.08,20.55-4.62a19.27,19.27,0,0,0,0-5.26,10.56,10.56,0,0,0-.8-3.67,7.73,7.73,0,0,0-1.75-2.54A9,9,0,0,0,58,43.69c-2.41-.82-2.94-.42-4.46-1.27-1.68-.94-1.58-1.74-2.39-1.75-1.61,0-3.43,3.13-5.57,6.85-.44.76-1,1.7-1.76,1.75s-1.55-.94-2.23-1.91C37.58,41.55,36.8,40.66,35.9,40.67Z"/><path class="cls-2" d="M55.41,24.9a2.15,2.15,0,0,1-.64-.64,1.75,1.75,0,0,1-.16-1.11s0-.07,0-4.46a8.9,8.9,0,0,0-1.33-5c-2-2.5-6.3-3.49-9.86-3.48h0c-3.55,0-8.1,1.3-10.07,3.8-.75,1-1.11,2.56-1.11,4.71,0,1.86,0,2.95,0,3.58,0,.86,0,.88,0,.88a1.82,1.82,0,0,1-.16,1.11,2.27,2.27,0,0,1-.64.64c-.53.5-.45,1.37-.32,2.71.16,1.55.25,2.46,1,3.18a4.13,4.13,0,0,0,1.27.8c1.81,1.05,1.58,3.3,2.55,5.1,1.38,2.55,4.89,3.69,7.52,3.66h0c2.63,0,6.15-1.12,7.52-3.67,1-1.8.75-4,2.55-5.1a4.29,4.29,0,0,0,1.28-.8c.71-.72.8-1.63.95-3.18C55.86,26.27,55.94,25.4,55.41,24.9Z"/><path class="cls-3" d="M48.93,29.79c-4.28-2-6.71-2-10.93.14a2.32,2.32,0,0,1-3.26-1.54l-.8-2.18a4.12,4.12,0,0,1,2-4.77c5.79-2.94,9.12-3,15-.23A4.16,4.16,0,0,1,52.93,26l-.75,2.22A2.33,2.33,0,0,1,48.93,29.79Z"/><path class="cls-3" d="M34.52,23.79a.92.92,0,0,1,0,.27A1,1,0,0,0,34.52,23.79Z"/><path class="cls-3" d="M36.33,28.06c-1.09-.71-1.56-2.36-1.85-3.38a1.64,1.64,0,0,1,0-.62,1.85,1.85,0,0,1-.38.84,2.74,2.74,0,0,1-.82.52c-.69.41-.57,1.1-.36,2.14a4.28,4.28,0,0,0,.66,1.91,2.47,2.47,0,0,0,.66.55,3.73,3.73,0,0,0,1.64.57c1.65.12,3.22-1.79,3.79-1.94S37.55,28.86,36.33,28.06Z"/><path class="cls-3" d="M52.24,23.7a.64.64,0,0,0,0,.27A.82.82,0,0,1,52.24,23.7Z"/><path class="cls-3" d="M53.57,25.24a2.89,2.89,0,0,1-.86-.46,1.83,1.83,0,0,1-.43-.81,1.66,1.66,0,0,1,.06.62c-.21,1-.57,2.71-1.6,3.5s-4,.71-3.31.83,2.29,1.9,3.92,1.66a3.77,3.77,0,0,0,1.59-.69,2.27,2.27,0,0,0,.62-.6,4.2,4.2,0,0,0,.52-1.95C54.21,26.29,54.28,25.6,53.57,25.24Z"/><g id="Layer_2-2" data-name="Layer 2"><g id="Layer_1-2-2" data-name="Layer 1-2"><path class="cls-3" d="M46,14.59a.35.35,0,0,0-.35-.35H44.42a.36.36,0,0,1-.35-.36V12.67a.36.36,0,0,0-.36-.35h-.57a.35.35,0,0,0-.35.35v1.21a.36.36,0,0,1-.36.36h-1.2a.36.36,0,0,0-.36.35v.57a.36.36,0,0,0,.36.36h1.2a.36.36,0,0,1,.36.35v1.21a.35.35,0,0,0,.35.35h.57a.36.36,0,0,0,.36-.35V15.87a.35.35,0,0,1,.35-.35h1.21a.36.36,0,0,0,.35-.36Z"/></g></g><circle class="cls-1" cx="30.78" cy="62.6" r="16.22"/><path class="cls-2" d="M37.91,68.51a9.26,9.26,0,1,1-.43-12.3.85.85,0,0,0,1.2-1.2,11,11,0,1,0,.43,14.7c.72-.82-.48-2-1.2-1.2Z"/><path class="cls-2" d="M39.57,59.7a9.64,9.64,0,0,1,.4,1.75l0-.22c0,.22.06.45.07.68a.93.93,0,0,0,.25.6.85.85,0,0,0,1.45-.6,11.13,11.13,0,0,0-.5-2.67.94.94,0,0,0-.39-.51.86.86,0,0,0-1.25,1Z"/><polyline class="cls-2" points="39.91 52.76 40.07 57.53 35.3 57.69"/><path class="cls-2" d="M31.05,62.24c0,.48-.26.88-.57.88s-.57-.4-.57-.88V56.3c0-.48.25-.88.57-.88s.57.4.57.88Z"/><path class="cls-2" d="M30.72,63.49c-.44-.18-.72-.56-.6-.85s.57-.39,1-.21L35.21,64c.44.18.71.56.6.85s-.58.38-1,.21Z"/><circle class="cls-2" cx="30.48" cy="62.81" r="1.01"/><path class="cls-2" d="M39.78,64.71a10.18,10.18,0,0,1-.52,1.59l.09-.21q-.16.39-.36.75a.94.94,0,0,0-.08.66.85.85,0,0,0,1.55.2,11,11,0,0,0,1-2.54.88.88,0,0,0-.09-.65.81.81,0,0,0-.51-.39.86.86,0,0,0-1,.59Z"/></g></g></svg>