<svg id="Layer_1" data-name="Layer 1" xmlns="http://www.w3.org/2000/svg" viewBox="0 0 655.44 480.86"><defs><style>.cls-1{fill:none;stroke:#1289bd;stroke-miterlimit:10;stroke-width:14.56px;}.cls-2,.cls-4{fill:#333;}.cls-3{font-size:120.5px;fill:#1289bd;font-family:Hogbine;}.cls-4{font-size:47.89px;font-family:false;letter-spacing:0.02em;}</style></defs><path class="cls-1" d="M607.51,298.54h72.42A28.59,28.59,0,0,0,708.44,270v-45.6a28.59,28.59,0,0,0-28.51-28.51H583a28.58,28.58,0,0,1-28.5-28.5V70.51A28.59,28.59,0,0,0,526,42h-45.6A28.59,28.59,0,0,0,451.9,70.51v65.22" transform="translate(-60.28 -34.72)"/><path class="cls-2" d="M171.77,128.74c0,19.07-22.63,40.66-43.1,57.1,17.58-.48,25.58,4.29,29.63,8.45,11.25,11.52,4.3,30.79,11.31,64.43A52.24,52.24,0,0,0,175.15,274c5.09,9.18,16.69,18,16.69,18h18.84l-15.14,7c-6.59,12.11-9.72,14.33-11.36,13.92-2.21-.55-1.73-5.89-3.79-13.92a60.94,60.94,0,0,0-7.57-17.4,60.69,60.69,0,0,1-11.36-17.4c-6.74-15.93-2-25.38-7.57-52.2-1.23-5.85-4-17.81-11.14-21.52a35.86,35.86,0,0,0-14.56-3.7h-1.48c-11.92,10-23,18.15-27.6,22.73v48.46c0,6.78,7.74,8.78,13.59,9.57v2.2H71.94V267.5c6.06-.6,13.59-2.78,13.59-9.52V140.43c0-6.74-7.53-8.92-13.59-9.51v-2.18H112.7v1.84c-5.58.79-13.55,2.77-13.59,9.51v66.74c5.86-5.74,16-12.08,26.11-20.4C141.39,173,158,155.34,158,128.74Z" transform="translate(-60.28 -34.72)"/><path class="cls-2" d="M197.14,241.25V184c0-7-3.81-9.26-14.56-7v-1l25.75-9.22a4.34,4.34,0,0,1,2.4,0v74.47c0,19.15,9.33,25.73,19.53,25.73,19.1,0,33.85-23.73,33.85-36.9V183.72c0-6.53-3.34-8.64-13.59-6.53v-1.4L275.4,167a4.37,4.37,0,0,1,2.3,0v93.68a4.78,4.78,0,0,0,5.1,5.09c3.55,0,7.55-2.64,10.43-4.89v1.05c-4.53,4-11.65,9.52-19.2,9.52-6.25,0-9.92-4.16-9.92-10.7v-20c-5.4,14.49-18.36,30.78-39.53,30.78C208.16,271.44,197.14,261.51,197.14,241.25Z" transform="translate(-60.28 -34.72)"/><path class="cls-2" d="M329.14,195.62c5.38-14.46,18.31-30.7,39.41-30.7,16.36,0,27.56,9.9,27.56,30.1v63.07c0,6.93,7.65,8.72,13.59,9.71v1H368v-1c6.5-.79,14.56-2.78,14.56-9.71V194.8c0-19.15-9.33-25.73-19.53-25.73-19.09,0-33.85,23.74-33.85,36.9v53c0,6.94,7.74,8.72,13.59,9.71v1H301v-1c6.06-.79,13.58-2.78,13.58-9.73v-74.8c0-6.75-3.55-8.93-13.58-6.75v-1.19l24.66-9.12h3.48Z" transform="translate(-60.28 -34.72)"/><path class="cls-2" d="M429.57,178.51a60.37,60.37,0,0,1,38.05-13.87c21.53.2,34.28,12.88,34.28,32.88v63.11c0,2.85,1.78,5.09,5.33,5.09s7.32-2.64,10.2-4.89v1.05c-4.53,4-11.64,9.52-19.19,9.52-6.26,0-9.92-4.16-9.92-10.7v-7.33c-10.25,9.31-28.43,18-42.44,18-15.68,0-25.09-10.5-25.09-22,0-30.7,67.53-32.48,67.53-49.71v-2.18c0-13.07-5-30.7-21.54-30.7-13.17,0-24.25,11.09-33.24,24.16Zm58.75,26.93c-11.21,13.08-57.76,16.44-57.76,40.61,0,11.28,10.35,19.4,24.57,19.4,13.58,0,24.35-7.52,33.19-15.45Z" transform="translate(-60.28 -34.72)"/><path class="cls-2" d="M193.26,376v44.32c0,6.74,8.29,8.72,14.56,9.51V432H166.08v-2.18c6.16-.59,13.59-2.77,13.59-9.51V303.13s-1.39-10-3.91-16.35a63.37,63.37,0,0,0-8.67-15.23c-1.05-5.2-.68-6.74,0-7,2.31-.86,7.37,13.22,19,21,6.64,4.42,16.78,7.68,32.86,5.93,31.25,0,48.06,9.11,48.06,27.72C267,351.06,193.26,376,193.26,376ZM219,293.63c-14.65,0-24.78,4.55-24.78,14.85v64.17c23.06-20.6,59.26-23.57,59.26-51.69C253.49,305.11,242.07,293.63,219,293.63Z" transform="translate(-60.28 -34.72)"/><path class="cls-2" d="M283.62,395.23c4.53,17,18.1,32.67,33.19,32.67,12.71,0,27.8-11.09,36.63-29.71l2.15,1.19c-11.41,20-26.07,33.28-44.6,33.28-28,0-44.18-29.71-44.18-57.44,0-29.51,18.53-49.31,45.9-49.31,17.67,0,28.23,8.12,28.23,23.37C340.94,371.46,318.31,390.27,283.62,395.23Zm26.51-67.14c-17.89,0-28.66,18.41-28.66,46.74a114.12,114.12,0,0,0,1.5,18.61c28.45-5.15,44.4-19.41,44.4-43.37C327.37,335.41,321.33,328.09,310.13,328.09Z" transform="translate(-60.28 -34.72)"/><path class="cls-2" d="M388.35,419.53c0,7,7.73,8.73,13.59,9.72v1H360.2v-1c5.85-.79,13.59-2.77,13.59-9.72v-74.8c0-5-1.88-7.74-7.32-7.74a22.77,22.77,0,0,0-6.27,1v-1.19l24.67-9.13h3.48v24.21c4.6-16.47,14.84-26.39,28-26.39,7.32,0,15.26,3.17,21.11,7.54l-2.92,13.49C428.69,338,422,330.44,412.6,330.44c-13.8,0-24.25,15.08-24.25,39.68Z" transform="translate(-60.28 -34.72)"/><path class="cls-2" d="M459.2,344.73c0-6.75-3.56-8.93-13.59-6.75v-1.19l24.67-9.13h3.48v91.87c0,7,7.73,8.73,13.59,9.72v1H445.61v-1c6.06-.79,13.59-2.77,13.59-9.72Z" transform="translate(-60.28 -34.72)"/><path class="cls-2" d="M575.84,352.25c-9.48-13.08-20.9-24.16-33.18-24.16-16.38,0-29.74,18.81-29.74,45.35,0,31.88,19,54.46,39.22,54.46,14,0,29.53-10.89,38.15-29.71l2.15,1.19C580.8,420,565.72,432.66,545,432.66c-27.37,0-46.11-21.79-46.11-54.47,0-31.09,17.23-52.28,43.09-52.28,11.86,0,26.29,4.55,37.93,13.86Zm-44.38-34.86-3.24-3.17,24.79-21,5.6,5.15Z" transform="translate(-60.28 -34.72)"/><path class="cls-2" d="M117.67,542.28" transform="translate(-60.28 -34.72)"/><text class="cls-3" transform="translate(7.2 397.93) scale(1.16 1)">&amp;</text><text class="cls-4" transform="translate(0 471.1) scale(1.1 1)">MEDICINSKI CENTAR</text><circle class="cls-2" cx="402.66" cy="267.63" r="9.5"/></svg>