<svg id="Layer_1" data-name="Layer 1" xmlns="http://www.w3.org/2000/svg" viewBox="0 0 251.55 251.53"><defs><style>.cls-1{fill:#008aba;}</style></defs><g id="Layer_1-2" data-name="Layer 1-2"><g id="Layer_2-3" data-name="Layer 2-3"><g id="Layer_1-2-3" data-name="Layer 1-2-3"><path class="cls-1" d="M305.78,265.24a17.55,17.55,0,0,0-17.47-17.47H228.92a17.53,17.53,0,0,1-17.47-17.47V170.91A17.53,17.53,0,0,0,194,153.45H166a17.53,17.53,0,0,0-17.47,17.46V230.3a17.52,17.52,0,0,1-17.43,17.47H71.71a17.53,17.53,0,0,0-17.46,17.47v27.94a17.53,17.53,0,0,0,17.46,17.47H131.1a17.55,17.55,0,0,1,17.47,17.47v59.39A17.56,17.56,0,0,0,166,405h28a17.55,17.55,0,0,0,17.47-17.47V328.12a17.55,17.55,0,0,1,17.47-17.47h59.39a17.55,17.55,0,0,0,17.47-17.47Z" transform="translate(-54.25 -153.45)"/></g></g></g></svg>