<svg xmlns="http://www.w3.org/2000/svg" viewBox="0 0 87.78 87.78"><defs><style>.cls-1{fill:#fff;}.cls-2{fill:#1289bd;}.cls-3{fill:none;stroke:#1289bd;stroke-miterlimit:10;stroke-width:1.7px;}</style></defs><g id="Layer_2" data-name="Layer 2"><g id="Layer_1-2" data-name="Layer 1"><circle class="cls-1" cx="43.89" cy="43.89" r="43.89"/><path class="cls-2" d="M49.11,30.3l2,1L54.22,33l.72.38A.8.8,0,0,0,56,33.09.81.81,0,0,0,55.74,32l-2-1-3.14-1.65-.71-.38a.79.79,0,1,0-.8,1.36Z"/><path class="cls-2" d="M52.64,28.46l2,1,3.14,1.65.72.38a.81.81,0,0,0,1.08-.29.8.8,0,0,0-.29-1.08l-2-1-3.14-1.65-.72-.37a.79.79,0,1,0-.8,1.36Z"/><path class="cls-2" d="M56.54,26.85l2,1,3.15,1.65.71.38a.82.82,0,0,0,1.09-.29.81.81,0,0,0-.29-1.08l-2-1-3.14-1.65-.72-.38a.8.8,0,0,0-1.08.29.79.79,0,0,0,.28,1.08Z"/><path class="cls-3" d="M50.88,41.83a6,6,0,0,0-1.74-.23,5.19,5.19,0,0,0-2.24.62c-.6.36-1.52.91-2.64,1.61-3.58,2.23-4,2.67-5.06,3.29a19,19,0,0,1-12.34,2c-.86-.19-2.94-.75-4.1.35A11.54,11.54,0,0,0,21.58,51c-.48.67-.85,1.25-1.1,1.65.93,1.09,10.3,11.71,24.06,9.86,9.66-1.31,15.53-8,17.1-9.86-1.54-2.15-2.94-3.9-4-5.22C56.91,46.57,53.59,42.64,50.88,41.83Z"/><path class="cls-3" d="M46.18,43.62c-1.09.85-2.89,1.41-4,2.13a26.69,26.69,0,0,1-7.49,3.4c-1.19.31-2.38.67-3.59.9l-.93.17A10.55,10.55,0,0,0,30,52.08a10.28,10.28,0,0,0,20.56,0C50.52,48.4,49.17,45.39,46.18,43.62Z"/><ellipse class="cls-3" cx="40.24" cy="52.3" rx="3.32" ry="3.56"/><path class="cls-2" d="M41.41,33.54l-3.8,1.75-6.15,2.83L28,39.72a.76.76,0,0,0-.16,1.19,7.61,7.61,0,0,0,2.86,1.35,9.17,9.17,0,0,0,5.59-.54,8.81,8.81,0,0,0,1.59-.88,12,12,0,0,0,1.48-1.28c.21-.2.42-.39.64-.57A.1.1,0,0,1,40,39s-.2.14-.1.07l.15-.1.32-.19c.58-.31,1.18-.59,1.78-.84l.13,0-.1,0,.07,0,.27-.11.48-.2c.32-.13.63-.25.94-.39a7.42,7.42,0,0,0,1.43-.66,1.21,1.21,0,0,0,.26-.2.77.77,0,0,0-.15-1.19l-2.91-1.36-.41-.2a.77.77,0,0,0-1,.27.75.75,0,0,0,.27,1l2.9,1.37.42.2-.16-1.19c0,.06-.14.08.1-.06l-.08.05-.21.12c-.21.11-.43.2-.65.3l-.19.08,0,0-.12.05-.44.19-1,.39c-.68.28-1.34.56-2,.89a6,6,0,0,0-1.35.87c-.48.43-.94.88-1.43,1.3l-.15.12,0,0c-.12.09.12-.1.06,0l-.26.17a5.52,5.52,0,0,1-.66.4l-.42.21s-.15.07,0,0l-.05,0-.28.11a11.2,11.2,0,0,1-1.37.39l-.35.07-.19,0h-.07c-.18,0,.12,0,0,0l-.7,0c-.23,0-.44,0-.65,0l-.31,0H31.7c-.18,0,.16,0,0,0a7.84,7.84,0,0,1-1.09-.25l-.46-.16-.09,0s-.16-.07,0,0,0,0,0,0l-.11,0a6.84,6.84,0,0,1-1.05-.61l0,0L28.73,41l6.19-2.84L40,35.82l2.13-1a.75.75,0,0,0,.28-1A.79.79,0,0,0,41.41,33.54Z"/><path class="cls-2" d="M44.74,34.85c-.55-.34-1.1-.68-1.66-1l-.73-.44-.41-.25L41.73,33,41.61,33l.09.07a.62.62,0,0,1,.08.76l-.28.28.3-.15.33-.15.72-.34,1.33-.61,2.65-1.24,5.31-2.47,10.67-5,5.31-2.47c.21-.1.43-.21.65-.3,0,0,.19-.07,0,0l.1,0,.23-.08.18,0,.09,0c-.26.06-.16,0-.09,0h.18c.08,0,.14,0-.1,0l.11,0,.13,0c-.26-.07-.1,0,0,0a.18.18,0,0,0,.07.05c-.17-.08-.13-.11-.06-.05l.16.17.07.08c-.15-.17-.09-.12-.06-.07l.13.2a3.4,3.4,0,0,1,.26.5c.08.17.16.33.23.5a.59.59,0,0,1,0,.08c-.11-.21,0,0,0,.08a3.77,3.77,0,0,1,.14.58c0,.16,0-.2,0,0s0,.08,0,.13a2.25,2.25,0,0,1,0,.26,1.41,1.41,0,0,1,0,.21c0,.07,0,.18,0,0a.9.9,0,0,0,0,.16l-.06.24a.36.36,0,0,0,0,.11c0,.07-.1.16,0,0-.08.14-.15.27-.24.4s.13-.14,0,0l-.07.08L70,25c-.11.1.16-.11,0,0L70,25a1.39,1.39,0,0,1-.21.11h0l-.2.09-2.4,1.11-4.31,2L57.6,30.7l-5.15,2.37L48.36,35l-2.1,1-.09,0H47l-2.22-1.09a.79.79,0,1,0-.8,1.36l2.14,1.06.09,0a.87.87,0,0,0,.8,0l.05,0,.28-.12,1.19-.55,1.9-.87,2.42-1.11,2.79-1.29,3-1.36,3-1.37,2.82-1.29,2.48-1.15,2-.9,1.29-.59c.21-.09.41-.19.61-.3a3,3,0,0,0,1.4-2.22,4.22,4.22,0,0,0-.06-1.42,5.09,5.09,0,0,0-.39-1,4.28,4.28,0,0,0-1-1.64,2,2,0,0,0-1.2-.47,2.47,2.47,0,0,0-1,.2c-.51.19-1,.44-1.5.68l-1.49.69-3,1.39-6,2.8-6,2.8-6,2.77-3,1.41a6.51,6.51,0,0,0-.71.33,1,1,0,0,0-.14,1.44,3.73,3.73,0,0,0,.7.47l.53.32c.72.43,1.44.86,2.14,1.3A.79.79,0,0,0,45,35.94.81.81,0,0,0,44.74,34.85Z"/><path class="cls-3" d="M25.37,48.75c-2.59-.7-5.32-.12-7.93.47l-1.81.41"/><path class="cls-3" d="M17.56,58.17a42.63,42.63,0,0,0,27.12,10"/><path class="cls-3" d="M47.65,59.11a19.51,19.51,0,0,1-3-2.34"/><path class="cls-3" d="M50.15,53.58a7.3,7.3,0,0,0-2.72-.95"/></g></g></svg>