<svg xmlns="http://www.w3.org/2000/svg" viewBox="0 0 110 110"><defs><style>.cls-1{fill:#1289bd;}.cls-2{fill:#fff;}.cls-3{fill:none;stroke:#fff;stroke-linecap:round;stroke-miterlimit:10;stroke-width:1.96px;}</style></defs><g id="Layer_2" data-name="Layer 2"><g id="Layer_1-2" data-name="Layer 1"><rect class="cls-1" width="110" height="110"/><path class="cls-2" d="M62.37,35.79l2.79,1.46,4.45,2.34,1,.53a1.12,1.12,0,0,0,1.13-1.93L69,36.72l-4.44-2.33-1-.54a1.12,1.12,0,0,0-1.13,1.94Z"/><path class="cls-2" d="M67.38,33.18l2.78,1.47L74.61,37l1,.54a1.12,1.12,0,0,0,1.13-1.94L74,34.12l-4.44-2.34-1-.53a1.15,1.15,0,0,0-1.54.4,1.13,1.13,0,0,0,.41,1.53Z"/><path class="cls-2" d="M72.89,30.9l2.79,1.47,4.44,2.33,1,.54a1.15,1.15,0,0,0,1.54-.4,1.13,1.13,0,0,0-.41-1.53l-2.79-1.47L75,29.5,74,29a1.14,1.14,0,0,0-1.53.4,1.12,1.12,0,0,0,.4,1.53Z"/><path class="cls-3" d="M64.89,52.08a8.19,8.19,0,0,0-2.46-.32,7.52,7.52,0,0,0-3.18.87c-.85.51-2.15,1.3-3.73,2.29-5.06,3.15-5.61,3.77-7.15,4.64-4.43,2.51-11.63,4.1-17.46,2.79-1.2-.27-4.16-1.06-5.79.5A16.46,16.46,0,0,0,23.44,65c-.67,1-1.19,1.76-1.55,2.32,1.32,1.55,14.57,16.57,34,14,13.67-1.85,22-11.26,24.19-14-2.18-3-4.15-5.51-5.7-7.37C73.4,58.79,68.71,53.23,64.89,52.08Z"/><path class="cls-3" d="M58.23,54.61c-1.53,1.21-4.09,2-5.71,3a37.67,37.67,0,0,1-10.59,4.8c-1.68.44-3.37,1-5.07,1.28-.44.09-.88.16-1.31.23a13.81,13.81,0,0,0-.25,2.64,14.54,14.54,0,0,0,29.07,0C64.37,61.37,62.46,57.11,58.23,54.61Z"/><ellipse class="cls-3" cx="49.83" cy="66.89" rx="4.7" ry="5.03"/><path class="cls-2" d="M51.49,40.36l-5.38,2.48-8.69,4L32.48,49.1a1.08,1.08,0,0,0-.22,1.68,10.67,10.67,0,0,0,4,1.91,13,13,0,0,0,7.9-.76,12.1,12.1,0,0,0,2.26-1.24,19.06,19.06,0,0,0,2.09-1.82c.3-.27.59-.55.9-.81l.07-.05-.13.1.2-.14c.15-.09.3-.18.46-.26a26.31,26.31,0,0,1,2.52-1.19l.17-.07-.13,0,.1,0,.37-.15.69-.29,1.33-.55a12.22,12.22,0,0,0,2-.93,2.12,2.12,0,0,0,.38-.29,1.08,1.08,0,0,0-.22-1.68l-4.11-1.93-.59-.28a1.09,1.09,0,0,0-1.45.39,1.07,1.07,0,0,0,.38,1.45l4.11,1.94.59.27L56,42.74c-.08.08-.2.11.13-.09l-.11.07-.3.17c-.3.16-.61.29-.91.42l-.28.12.07,0-.17.07-.63.27-1.36.55c-1,.4-1.9.8-2.83,1.26a8.47,8.47,0,0,0-1.9,1.23c-.68.61-1.33,1.24-2,1.84l-.21.17-.08.07c-.16.13.18-.14.09-.08a4,4,0,0,1-.37.25,8.91,8.91,0,0,1-.93.57c-.2.11-.4.2-.6.29l0,0-.07,0-.4.15a15.93,15.93,0,0,1-1.94.55l-.49.1-.26,0-.11,0c-.25,0,.17,0,0,0-.33,0-.66.06-1,.07s-.62,0-.92,0a3.13,3.13,0,0,1-.44,0h-.19c-.25,0,.23,0,0,0a10.1,10.1,0,0,1-1.54-.35l-.65-.22-.13-.06s-.23-.09,0,0,0,0,0,0l-.15-.07a8.4,8.4,0,0,1-1.48-.86c-.1-.07-.35-.26.05.05l-.21,1.67,8.75-4,7.25-3.33,3-1.39A1.05,1.05,0,0,0,53,40.75,1.11,1.11,0,0,0,51.49,40.36Z"/><path class="cls-2" d="M56.2,42.21l-2.34-1.42-1-.63-.59-.35L52,39.63a1.45,1.45,0,0,0-.18-.1l.13.1A.86.86,0,0,1,52,40.69l-.4.41a2.06,2.06,0,0,1,.42-.21l.47-.22,1-.47,1.88-.88,3.76-1.74,7.5-3.5,15.09-7,7.51-3.5.91-.42c.08,0,.28-.1,0,0l.15-.06.31-.11.26-.06.13,0c-.37.08-.22,0-.12,0h.24c.12,0,.21.07-.13,0l.15,0,.19.06c-.38-.11-.14-.06,0,0l.1.07c-.24-.11-.19-.15-.09-.06a2.5,2.5,0,0,1,.23.23.52.52,0,0,0,.1.11c-.21-.23-.13-.16-.08-.09s.13.18.19.28a7.92,7.92,0,0,1,.37.71c.1.23.21.47.32.7l0,.12c-.15-.3,0,0,0,.11a5.8,5.8,0,0,1,.21.82c0,.23,0-.28,0-.05,0,.06,0,.13,0,.19s0,.24,0,.37,0,.2,0,.3-.07.26,0-.06a1.55,1.55,0,0,0,0,.23,2,2,0,0,1-.09.33c0,.05,0,.11,0,.16s-.13.22,0-.06a6.65,6.65,0,0,1-.33.58c-.12.18.19-.21,0-.06l-.11.12-.24.22c-.16.14.23-.15.06,0l-.14.09a2.69,2.69,0,0,1-.29.16h0l-.28.13-3.4,1.56L81.75,33l-7.37,3.39L67.1,39.69l-5.79,2.66-3,1.36-.13.07h1.13L56.2,42.22a1.12,1.12,0,1,0-1.13,1.94l3,1.5.12.06a1.25,1.25,0,0,0,1.13,0l.07,0,.39-.17,1.69-.78,2.69-1.23,3.43-1.58,3.94-1.81,4.2-1.93L80,36.25l4-1.83,3.52-1.62,2.78-1.28,1.82-.84a8.65,8.65,0,0,0,.87-.41,4.25,4.25,0,0,0,2-3.15,5.66,5.66,0,0,0-.09-2,7.17,7.17,0,0,0-.55-1.46,6,6,0,0,0-1.49-2.3,2.77,2.77,0,0,0-1.69-.67,3.69,3.69,0,0,0-1.47.27c-.72.29-1.42.64-2.12,1l-2.11,1-4.22,2-8.49,3.95-8.48,4L55.77,36.7l-4.26,2a7.14,7.14,0,0,0-1,.47,1.34,1.34,0,0,0-.19,2,4.39,4.39,0,0,0,1,.65l.76.47c1,.6,2,1.21,3,1.83a1.12,1.12,0,0,0,1.53-.4A1.15,1.15,0,0,0,56.2,42.21Z"/><path class="cls-3" d="M28.81,61.86c-3.66-1-7.53-.15-11.22.68L15,63.11"/><path class="cls-3" d="M17.76,75.18A60.32,60.32,0,0,0,56.11,89.32"/><path class="cls-3" d="M60.31,76.53a28.49,28.49,0,0,1-4.26-3.32"/><path class="cls-3" d="M63.85,68.7A10.18,10.18,0,0,0,60,67.36"/></g></g></svg>