<svg xmlns="http://www.w3.org/2000/svg" viewBox="0 0 87.78 87.78"><defs><style>.cls-1{fill:#fff;}.cls-2{fill:none;stroke:#1289bd;stroke-miterlimit:10;stroke-width:1.45px;}</style></defs><g id="Layer_2" data-name="Layer 2"><g id="Layer_1-2" data-name="Layer 1"><circle class="cls-1" cx="43.89" cy="43.89" r="43.89"/><polyline class="cls-2" points="26.41 57.6 34.97 26.16 40.36 22.15 42.88 27.77 34.13 59.88"/><line class="cls-2" x1="39.92" y1="31.01" x2="38.08" y2="37.77"/><line class="cls-2" x1="24.42" y1="57.85" x2="35.62" y2="60.54"/><line class="cls-2" x1="43.78" y1="10.05" x2="40.48" y2="22.18"/><path class="cls-2" d="M29.74,45.93l7.39,1.76"/><line class="cls-2" x1="28.11" y1="65.98" x2="33.32" y2="46.83"/><path class="cls-2" d="M23.93,65.66l-.62,2.27,7.47,1.8.63-2.32A67.68,67.68,0,0,1,23.93,65.66Z"/><line class="cls-2" x1="34.97" y1="26.16" x2="40.17" y2="27.41"/><line class="cls-2" x1="32.75" y1="34.59" x2="34.84" y2="35.09"/><line class="cls-2" x1="31.48" y1="39.27" x2="33.8" y2="39.83"/><path class="cls-2" d="M50.22,30.82H60.9A1.08,1.08,0,0,1,62,31.87v2.8a1.08,1.08,0,0,1-1.11,1.06H50.22a1.08,1.08,0,0,1-1.11-1.06v-2.8A1.08,1.08,0,0,1,50.22,30.82Z"/><line class="cls-2" x1="48.78" y1="38.29" x2="62.26" y2="38.29"/><path class="cls-2" d="M60.34,36.4v3.43A2.35,2.35,0,0,0,61,41.46l1.53,1.61a7,7,0,0,1,1.94,4.79V69.11a.45.45,0,0,1-.14.32.5.5,0,0,1-.33.12H47.35a.47.47,0,0,1-.48-.44h0V47.88a7,7,0,0,1,1.94-4.78l1.54-1.61A2.4,2.4,0,0,0,51,39.86V36.43"/><path class="cls-2" d="M56.9,58.67h4.72"/><path class="cls-2" d="M56.9,62.21h4.72"/><path class="cls-2" d="M47.91,52.3A24.35,24.35,0,0,0,54.63,52c1.42-.35,2.75-.94,4.14-1.39a20.12,20.12,0,0,1,4.69-.94"/></g></g></svg>