<svg xmlns="http://www.w3.org/2000/svg" viewBox="0 0 110 110"><defs><style>.cls-1{fill:#1289bd;}.cls-2{fill:none;stroke:#fff;stroke-linecap:round;stroke-miterlimit:10;stroke-width:2.13px;}</style></defs><g id="Layer_2" data-name="Layer 2"><g id="Layer_1-2" data-name="Layer 1"><rect class="cls-1" width="110" height="110"/><polyline class="cls-2" points="29.37 80.96 41.92 34.87 49.83 28.98 53.51 37.22 40.69 84.31"/><line class="cls-2" x1="49.17" y1="41.99" x2="46.47" y2="51.9"/><line class="cls-2" x1="26.45" y1="81.32" x2="42.87" y2="85.28"/><line class="cls-2" x1="54.84" y1="11.25" x2="50" y2="29.03"/><path class="cls-2" d="M34.25,63.85l10.84,2.58"/><line class="cls-2" x1="31.86" y1="93.25" x2="39.5" y2="65.17"/><path class="cls-2" d="M25.73,92.79l-.9,3.32,10.94,2.64.93-3.41A99.74,99.74,0,0,1,25.73,92.79Z"/><line class="cls-2" x1="41.92" y1="34.87" x2="49.54" y2="36.71"/><line class="cls-2" x1="38.67" y1="47.23" x2="41.73" y2="47.97"/><line class="cls-2" x1="36.8" y1="54.09" x2="40.21" y2="54.91"/><path class="cls-2" d="M64.28,41.7H79.93a1.6,1.6,0,0,1,1.64,1.54v4.11a1.6,1.6,0,0,1-1.64,1.54H64.28a1.59,1.59,0,0,1-1.63-1.54V43.24A1.59,1.59,0,0,1,64.28,41.7Z"/><line class="cls-2" x1="62.16" y1="52.66" x2="81.93" y2="52.66"/><path class="cls-2" d="M79.11,49.89v5a3.45,3.45,0,0,0,1,2.39l2.25,2.37a10.16,10.16,0,0,1,2.84,7V97.84a.63.63,0,0,1-.2.46.74.74,0,0,1-.5.19H60.07a.68.68,0,0,1-.7-.66h0V66.72a10.16,10.16,0,0,1,2.84-7l2.26-2.37a3.49,3.49,0,0,0,1-2.39v-5"/><path class="cls-2" d="M74.08,82.53H81"/><path class="cls-2" d="M74.08,87.72H81"/><path class="cls-2" d="M60.89,73.2a35.27,35.27,0,0,0,9.85-.5c2.08-.5,4-1.37,6.07-2a29.68,29.68,0,0,1,6.88-1.38"/></g></g></svg>