<svg xmlns="http://www.w3.org/2000/svg" viewBox="0 0 110 110"><defs><style>.cls-1{fill:#1289bd;}.cls-2,.cls-3{fill:none;stroke:#fff;stroke-miterlimit:10;stroke-width:2.13px;}.cls-2{stroke-linecap:round;}</style></defs><g id="Layer_2" data-name="Layer 2"><g id="Layer_1-2" data-name="Layer 1"><rect class="cls-1" width="110" height="110"/><path class="cls-2" d="M67,14l2.33,7.5a1.09,1.09,0,0,0,.17.34C74.05,23.86,82.61,26.3,90,33c10.49,9.16,6.34,16.41,7.21,26.95"/><path class="cls-2" d="M12.8,60c.94-10.6-3.3-17.75,7.21-27C27.37,26.39,35.93,24,40.53,21.9a1,1,0,0,0,.17-.33L43,14.06"/><path class="cls-2" d="M25.18,50.32c-.17,8.13,1.89,11.37,4.42,17.9C32.19,78.7,32,83.49,30,96H80c-2-12.55-2.18-17.38.4-27.88,2.54-6.52,4.6-9.77,4.43-17.89"/><rect class="cls-3" x="48.4" y="37.02" width="13.98" height="6.43" rx="0.9"/><rect class="cls-3" x="62.53" y="38.02" width="3.42" height="4.42" rx="0.9"/><rect class="cls-3" x="62.53" y="38.02" width="3.42" height="4.42" rx="0.9"/><rect class="cls-3" x="44.83" y="38.02" width="3.42" height="4.42" rx="0.9"/><rect class="cls-3" x="48.4" y="46.61" width="13.98" height="6.43" rx="0.9"/><rect class="cls-3" x="62.53" y="47.61" width="3.42" height="4.42" rx="0.9"/><rect class="cls-3" x="62.53" y="47.61" width="3.42" height="4.42" rx="0.9"/><rect class="cls-3" x="44.83" y="47.61" width="3.42" height="4.42" rx="0.9"/><rect class="cls-3" x="48.4" y="56.2" width="13.98" height="6.43" rx="0.9"/><rect class="cls-3" x="62.53" y="57.21" width="3.42" height="4.42" rx="0.9"/><rect class="cls-3" x="62.53" y="57.21" width="3.42" height="4.42" rx="0.9"/><rect class="cls-3" x="44.83" y="57.21" width="3.42" height="4.42" rx="0.9"/><rect class="cls-3" x="48.4" y="65.79" width="13.98" height="6.43" rx="0.9"/><rect class="cls-3" x="62.53" y="66.8" width="3.42" height="4.42" rx="0.9"/><rect class="cls-3" x="62.53" y="66.8" width="3.42" height="4.42" rx="0.9"/><rect class="cls-3" x="44.83" y="66.8" width="3.42" height="4.42" rx="0.9"/></g></g></svg>