<svg xmlns="http://www.w3.org/2000/svg" viewBox="0 0 110 110"><defs><style>.cls-1{fill:#f0f2f2;}.cls-2,.cls-3{fill:none;stroke:#1289bd;stroke-miterlimit:10;stroke-width:2.13px;}.cls-2{stroke-linecap:round;}</style></defs><g id="Layer_2" data-name="Layer 2"><g id="Layer_1-2" data-name="Layer 1"><rect class="cls-1" width="110" height="110"/><path class="cls-2" d="M67,14.16l2.33,7.5a1,1,0,0,0,.17.33c4.6,2,13.16,4.49,20.52,11.13,10.49,9.16,6.34,16.41,7.21,27"/><path class="cls-2" d="M12.8,60.16c.94-10.6-3.3-17.75,7.21-26.95,7.36-6.65,15.92-9.09,20.52-11.13a1.09,1.09,0,0,0,.17-.34L43,14.23"/><path class="cls-2" d="M25.18,50.5C25,58.63,27.07,61.87,29.6,68.39,32.19,78.87,32,83.66,30,96.19H80c-2-12.54-2.18-17.38.4-27.87,2.54-6.53,4.6-9.77,4.43-17.9"/><rect class="cls-3" x="48.4" y="37.19" width="13.98" height="6.43" rx="0.9"/><rect class="cls-3" x="62.53" y="38.19" width="3.42" height="4.42" rx="0.9"/><rect class="cls-3" x="62.53" y="38.19" width="3.42" height="4.42" rx="0.9"/><rect class="cls-3" x="44.83" y="38.19" width="3.42" height="4.42" rx="0.9"/><rect class="cls-3" x="48.4" y="46.78" width="13.98" height="6.43" rx="0.9"/><rect class="cls-3" x="62.53" y="47.79" width="3.42" height="4.42" rx="0.9"/><rect class="cls-3" x="62.53" y="47.79" width="3.42" height="4.42" rx="0.9"/><rect class="cls-3" x="44.83" y="47.79" width="3.42" height="4.42" rx="0.9"/><rect class="cls-3" x="48.4" y="56.37" width="13.98" height="6.43" rx="0.9"/><rect class="cls-3" x="62.53" y="57.38" width="3.42" height="4.42" rx="0.9"/><rect class="cls-3" x="62.53" y="57.38" width="3.42" height="4.42" rx="0.9"/><rect class="cls-3" x="44.83" y="57.38" width="3.42" height="4.42" rx="0.9"/><rect class="cls-3" x="48.4" y="65.97" width="13.98" height="6.43" rx="0.9"/><rect class="cls-3" x="62.53" y="66.97" width="3.42" height="4.42" rx="0.9"/><rect class="cls-3" x="62.53" y="66.97" width="3.42" height="4.42" rx="0.9"/><rect class="cls-3" x="44.83" y="66.97" width="3.42" height="4.42" rx="0.9"/></g></g></svg>