<svg xmlns="http://www.w3.org/2000/svg" viewBox="0 0 110 110"><defs><style>.cls-1{fill:#f0f2f2;}.cls-2{fill:none;stroke:#1289bd;stroke-miterlimit:10;stroke-width:2.13px;}</style></defs><g id="Layer_2" data-name="Layer 2"><g id="Layer_1-2" data-name="Layer 1"><rect class="cls-1" width="110" height="110"/><path class="cls-2" d="M31.39,41.65c3.69-.61,12.19-1.58,9.75-7.09-2.9-2.37-4.88,2.11-7.78,2.41a4.06,4.06,0,0,1-3.24-1.25c-2.41-2.09-10.65-6.6-13.81-4.17-2.42,3.11,2,5.54,3.82,7.52"/><path class="cls-2" d="M90,43.48c-3.09,2.71-8.16,3-10.47.24-2-3.19,1.77-6.49,5-6,3.1-.14,9.11,2.11,5.54,5.65-.7,1,2.6,2.43,3.58,3.09,1.74-2.09,2.5-4.55,3.34-7.14,2.66-6.05,4.92-12.37-4.39-12.52C84.41,26.69,82,32,76.91,32.41c-2.43-.12-4.19-2.24-6-3.91-4.06-3.81-10.56-5.62-16.13-5.66-15,.19-15.08,8.27-21.87,9.56-5-.47-7.45-5.82-15.82-5.64-9,.28-6.71,6.6-4.1,12.6.83,2.56,1.6,5,3.32,7.06,1-.65,4.28-2.06,3.58-3.09-3.59-3.54,2.43-5.79,5.52-5.64,3.24-.45,7,2.85,5,6-2.3,2.77-7.37,2.47-10.47-.25"/><path class="cls-2" d="M78.6,41.65c-3.69-.61-12.2-1.58-9.75-7.09,2.9-2.37,4.87,2,7.78,2.41a3.79,3.79,0,0,0,3.24-1.25c2.41-2.09,10.64-6.6,13.81-4.17,2.41,3.11-2,5.54-3.82,7.52"/><path class="cls-2" d="M55.31,28.22c2.1-.3,9,1.57,10.93,3.17C53.7,37,54.94,51.78,55.65,63.32c1.81.95,3.14-2.39,4.93-1.75-1,7.59-2.74,22.8-2.74,22.8-.79.44-4.81.34-5.49,0Q50.88,73,49.42,61.57c1.79-.64,3.12,2.69,4.93,1.75C55.06,51.77,56.3,37,43.76,31.39,45.83,29.68,53.42,27.81,55.31,28.22Z"/><path class="cls-2" d="M68.85,34.56c-2.09,3.36-1.51,7.75-3.63,11.33a20,20,0,0,0-2.16,3.78c-.67,2-.13,4.25.12,6.38,1.21,10.87-2.5,20-3.42,31.1-2.74,0-6.81-.07-9.53,0-.92-11.08-4.63-20.23-3.42-31.1.25-2.13.79-4.34.12-6.38a20.6,20.6,0,0,0-2.16-3.78c-2.12-3.58-1.53-8-3.63-11.33"/></g></g></svg>