<svg xmlns="http://www.w3.org/2000/svg" viewBox="0 0 110 110"><defs><style>.cls-1{fill:#1289bd;}.cls-2,.cls-4{fill:none;}.cls-2,.cls-3,.cls-4{stroke:#fff;stroke-linecap:round;stroke-width:2.13px;}.cls-2{stroke-miterlimit:10;}.cls-3{fill:#fff;}.cls-3,.cls-4{stroke-miterlimit:10;}</style></defs><g id="Layer_2" data-name="Layer 2"><g id="Layer_1-2" data-name="Layer 1"><rect class="cls-1" width="110" height="110"/><rect class="cls-2" x="34.09" y="36.84" width="35.41" height="14.68" rx="1.75" transform="translate(-8.07 76.59) rotate(-68.89)"/><rect class="cls-2" x="42.09" y="57.85" width="4.89" height="10.25" rx="1.75" transform="translate(-30.25 81.84) rotate(-68.89)"/><rect class="cls-2" x="55.72" y="20.23" width="7.69" height="7.69" rx="1.75" transform="translate(15.65 70.97) rotate(-68.89)"/><rect class="cls-2" x="59.53" y="11.78" width="4.43" height="13.28" rx="1.75" transform="translate(22.32 69.38) rotate(-68.89)"/><circle class="cls-3" cx="58.54" cy="47.42" r="4.77"/><rect class="cls-4" x="24.24" y="86.09" width="55.73" height="9.43" rx="1.75"/><path class="cls-4" d="M67.25,86.09H52.54c-1.47,0-2.56-1-2.21-2l2.6-7.42a2.27,2.27,0,0,1,2.21-1.23h9.62A2.29,2.29,0,0,1,67,76.68l2.48,7.43C69.8,85.11,68.72,86.09,67.25,86.09Z"/><polyline class="cls-4" points="52.62 77.7 34.73 77.7 34.73 75.43 55.14 75.43"/><path class="cls-4" d="M63.32,49.22c1-.29,5.72-.33,10.71,2.51a14,14,0,0,1,7,12.73C80.71,71,75.49,76.79,68.29,78.13"/><path class="cls-4" d="M62.62,44.17c1.24-.4,8-.58,14.3,3.24a19.27,19.27,0,0,1,8.82,17.14A19.94,19.94,0,0,1,69.67,82.94"/></g></g></svg>