<svg xmlns="http://www.w3.org/2000/svg" viewBox="0 0 110 110"><defs><style>.cls-1{fill:#1289bd;}.cls-2,.cls-3{fill:none;stroke:#fff;stroke-miterlimit:10;stroke-width:2.25px;}.cls-3{stroke-linecap:round;}</style></defs><g id="Layer_2" data-name="Layer 2"><g id="Layer_1-2" data-name="Layer 1"><rect class="cls-1" width="110" height="110"/><path class="cls-2" d="M72.34,71H15.26a4.12,4.12,0,0,1-2.85-1.18A4,4,0,0,1,11.23,67V25.63a4,4,0,0,1,4-4H72.34a4,4,0,0,1,4,4V67A4,4,0,0,1,72.34,71Z"/><rect class="cls-2" x="17.78" y="29.17" width="52.03" height="34.27" rx="3"/><line class="cls-3" x1="20.3" y1="67.21" x2="23.17" y2="67.21"/><line class="cls-3" x1="27.13" y1="67.21" x2="30" y2="67.21"/><path class="cls-3" d="M39.68,33.13c0,.48-.27,4.17.47,5.46a4.71,4.71,0,0,0,2.09,2,10.21,10.21,0,0,0,4.08.85c1,.11,1.88-.37,2.51.34,1.11,1.26.81,3.52.59,4.47a9.3,9.3,0,0,1-3.28,5"/><path class="cls-3" d="M43.93,44a4.08,4.08,0,0,1,.19,2.16,3.59,3.59,0,0,1-.76,1.71,4,4,0,0,1-2,1.35,4.49,4.49,0,0,1-2.06.12c-.39.17-.91-.67-1.8-.87a2.55,2.55,0,0,0-2.06.5"/><path class="cls-3" d="M35.73,53.77a1.7,1.7,0,0,1,.41-1.8,1.57,1.57,0,0,1,2.09,0c.35.46-.14,1.06-.25,1.88-.25,1.92,1.66,3.79,2.59,4.44,2.94,2,7.84-.08,10.41-2,5.74-4.2,5.9-11.62,5.37-14.52a6.35,6.35,0,0,0-1.47-3.24,5.34,5.34,0,0,0-3.73-1.76,7,7,0,0,0-4.44,1.64,4.19,4.19,0,0,1-2.58,0A2.08,2.08,0,0,1,43,37.87a2.3,2.3,0,0,1-.49-1.6,26.48,26.48,0,0,1,0-3.45"/><path class="cls-3" d="M39.21,71.26l-.06,2a5.1,5.1,0,0,1-5.16,5l-8.77-.09a5.12,5.12,0,0,0-5.17,5.06v.06h0a5.11,5.11,0,0,0,5.12,5.11H85.73a5.11,5.11,0,0,0,5.11-5.11V60.17"/><path class="cls-3" d="M91.68,59.43H89.93a3,3,0,0,1-3-2.75l-1.6-17.35A3,3,0,0,1,88.06,36h5.31a3,3,0,0,1,3,3c0,.09,0,.19,0,.29L94.69,56.7A3,3,0,0,1,91.68,59.43Z"/><line class="cls-3" x1="85.38" y1="40.58" x2="96.33" y2="40.58"/><path class="cls-3" d="M84.63,32.2a8.56,8.56,0,0,1,5.63-2.73,9.07,9.07,0,0,1,6.92,2.73"/><path class="cls-3" d="M83,28.14A11.88,11.88,0,0,1,90.1,25.4a12.79,12.79,0,0,1,8.67,2.74"/></g></g></svg>