<svg xmlns="http://www.w3.org/2000/svg" viewBox="0 0 110 110"><defs><style>.cls-1{fill:#f0f2f2;}.cls-2,.cls-4{fill:none;stroke:#1289bd;stroke-miterlimit:10;stroke-width:2.13px;}.cls-2{stroke-linecap:round;}.cls-3{fill:#1289bd;}</style></defs><g id="Layer_2" data-name="Layer 2"><g id="Layer_1-2" data-name="Layer 1"><rect class="cls-1" width="110" height="110"/><path class="cls-2" d="M49.42,44.58A4.17,4.17,0,0,1,45.52,49a4.56,4.56,0,0,1-.64,0,7.67,7.67,0,1,0,4.35-5.4A3.84,3.84,0,0,1,49.42,44.58Z"/><circle class="cls-2" cx="45.1" cy="44.69" r="4.18"/><path class="cls-2" d="M25,25.14a50.13,50.13,0,0,1,52.93-.86"/><path class="cls-2" d="M25.63,76.19a48.83,48.83,0,0,0,24.89,8,45.56,45.56,0,0,0,9.89-.8"/><g id="Layer_2-2" data-name="Layer 2"><g id="Layer_1-2-2" data-name="Layer 1-2"><path class="cls-3" d="M88.64,72.63a1.52,1.52,0,0,0-1.51-1.52H82a1.52,1.52,0,0,1-1.52-1.51V64.45A1.52,1.52,0,0,0,79,62.93H76.52A1.53,1.53,0,0,0,75,64.45V69.6a1.51,1.51,0,0,1-1.51,1.51H68.34a1.53,1.53,0,0,0-1.52,1.52v2.42a1.53,1.53,0,0,0,1.52,1.52h5.15A1.51,1.51,0,0,1,75,78.08v5.16a1.53,1.53,0,0,0,1.52,1.51H79a1.52,1.52,0,0,0,1.51-1.51V78.08A1.52,1.52,0,0,1,82,76.57h5.15a1.51,1.51,0,0,0,1.51-1.52Z"/></g></g><path class="cls-4" d="M96.75,75.12c0,10.5-8.51,17.74-19,17.74a19,19,0,0,1,0-38C88.24,54.82,96.75,64.62,96.75,75.12Z"/><path class="cls-2" d="M58.73,68a18.78,18.78,0,1,1,11-12.08A19,19,0,0,1,86.33,57a44.84,44.84,0,0,0,5.34-6.33C90.59,49.09,76.89,29.78,52.14,30c-24.35.16-37.74,19-38.89,20.73,1,1.45,14.89,21.34,40,20.94,1.62,0,3.23-.14,4.84-.33A19,19,0,0,1,58.73,68Z"/></g></g></svg>