<svg xmlns="http://www.w3.org/2000/svg" viewBox="0 0 117 117"><defs><style>.cls-1{fill:#fff;}.cls-2{fill:none;stroke:#1289bd;stroke-linecap:round;stroke-miterlimit:10;stroke-width:2.83px;}.cls-3{fill:#1289bd;}</style></defs><g id="Layer_2" data-name="Layer 2"><g id="Layer_1-2" data-name="Layer 1"><circle class="cls-1" cx="58.5" cy="58.5" r="58.5"/><path class="cls-2" d="M21.72,57.51c3-1.56,7.18-3.13,11.79-2.25S40.45,59.14,44.18,62a43.82,43.82,0,0,0,23.59,7.87C82,70.18,91.16,60.25,93,62.57c1.29,1.59-2.44,7.14-6.18,10.67-9.58,9-22.76,8-24.71,7.86-15-1.35-23.75-12.57-25.27-14.6"/><path class="cls-3" d="M37.82,77.93a3,3,0,0,0,3.31-1.77c.27-.53.47-1.1.69-1.65,0-.13-.1.21,0,0l.08-.18a3.72,3.72,0,0,1,.19-.34l.1-.17,0,0c.06-.09,0-.07-.05.06s.08-.09.1-.12l.17-.16a1.08,1.08,0,0,0,0-1.5,1.1,1.1,0,0,0-1.51,0,4.08,4.08,0,0,0-.9,1.27c-.13.28-.25.57-.36.85,0,.11-.08.22-.13.33s-.05.13-.07.2-.1.22,0,.06l0,.07-.07.15a3.72,3.72,0,0,1-.19.34l-.09.14c-.1.14-.06,0,0,0a1.9,1.9,0,0,0-.24.25c-.09.09.2-.13,0,0l-.16.1-.11.06c-.19.1.22-.06,0,0l-.15,0c-.19,0,0,0,.07,0h-.18l.16,0-.13,0a1.06,1.06,0,0,0-.56,2.05Z"/><path class="cls-3" d="M48.09,76.91a3.91,3.91,0,0,0-2.38,2.83l-.24.81c0,.13-.09.26-.14.4s.05-.11,0,0l-.09.2a6.23,6.23,0,0,1-.41.71,2.14,2.14,0,0,1-.13.19s-.16.2,0,0l-.3.34a1.06,1.06,0,0,0,1.5,1.5,7.83,7.83,0,0,0,1.74-3.12c.08-.26.15-.52.23-.77,0-.07.05-.15.08-.22l0-.09c-.05.1,0,0,0-.07l.09-.17.09-.14s.14-.21.05-.09,0,0,0,0l.1-.12a1.74,1.74,0,0,1,.15-.13c-.06,0-.14.09,0,0l.17-.09c.13-.07-.23.08,0,0a1.09,1.09,0,0,0,.74-1.31,1.08,1.08,0,0,0-1.31-.74Z"/><path class="cls-3" d="M54.28,81.82c0,.41,0,.82-.05,1.24l0,.26c0,.1,0,.26,0,.07a6,6,0,0,1-.1.61,12.89,12.89,0,0,1-.66,2.3,1.07,1.07,0,0,0,.74,1.31,1.1,1.1,0,0,0,1.31-.74,14.08,14.08,0,0,0,.93-5.05,1.07,1.07,0,1,0-2.13,0Z"/><path class="cls-3" d="M62.2,83.13A33,33,0,0,1,62.05,88a1.07,1.07,0,0,0,1.06,1.06A1.09,1.09,0,0,0,64.17,88a30.5,30.5,0,0,0,.15-4.87,1.06,1.06,0,1,0-2.12,0Z"/><path class="cls-3" d="M70.26,83.34c.07.1.13.2.19.3.13.25-.06-.18,0,.08l.21.64c.13.43.24.87.35,1.31a27.56,27.56,0,0,1,.52,2.71,1.06,1.06,0,0,0,1.3.74,1.11,1.11,0,0,0,.75-1.31,26.6,26.6,0,0,0-.54-2.8c-.12-.46-.24-.91-.38-1.36a4.33,4.33,0,0,0-.59-1.38,1.09,1.09,0,0,0-1.46-.38,1.07,1.07,0,0,0-.38,1.45Z"/><path class="cls-3" d="M77.84,80.65l.49.59.12.16,0,0,.23.31c.31.43.6.87.88,1.33a21,21,0,0,1,1.46,2.83,1.06,1.06,0,0,0,1.45.38,1.08,1.08,0,0,0,.38-1.45,22.2,22.2,0,0,0-3.55-5.71,1.07,1.07,0,0,0-1.5,0,1.09,1.09,0,0,0,0,1.51Z"/><path class="cls-3" d="M84.61,78s.25,0,.06,0,0,0,0,0-.2-.1-.08,0a1.19,1.19,0,0,0,.15.09c.1.07-.17-.14,0,0l.13.12.23.22c.34.35.67.71,1,1.09.06.08.15.17.21.26-.07-.1-.09-.12,0,0l.11.15c.14.19.28.39.41.59.27.4.52.82.76,1.25a1.06,1.06,0,1,0,1.83-1.08,16.52,16.52,0,0,0-1.91-2.78c-.72-.87-1.64-2-2.89-2a1.07,1.07,0,0,0-1.06,1.06A1.09,1.09,0,0,0,84.61,78Z"/><path class="cls-3" d="M89.67,74.08h.17c.11,0-.2,0-.09,0l.17,0c.14,0,0,0-.07,0a1.28,1.28,0,0,0,.28.16l.26.17.25.18.12.09c.1.08-.18-.14,0,0l.49.4a12.8,12.8,0,0,1,1.71,1.82,1.09,1.09,0,0,0,.75.32,1.08,1.08,0,0,0,1.07-1.07,1.32,1.32,0,0,0-.31-.75,13.58,13.58,0,0,0-3.09-2.88A2.57,2.57,0,0,0,89.67,72a1.23,1.23,0,0,0-.76.31,1.12,1.12,0,0,0-.31.75,1.18,1.18,0,0,0,.31.76,1.08,1.08,0,0,0,.76.31Z"/><path class="cls-3" d="M22,60a14.48,14.48,0,0,1,2.55,0L24,60a6,6,0,0,1,1.46.38l-.51-.21a7,7,0,0,1,1.49.89L26,60.7a12.21,12.21,0,0,1,1.14,1,2.13,2.13,0,1,0,3-3,11,11,0,0,0-3.72-2.52,10.48,10.48,0,0,0-4.42-.4A2.13,2.13,0,1,0,22,60Z"/><path class="cls-2" d="M91.75,41.13a42.77,42.77,0,0,1,5.5,6"/><path class="cls-2" d="M74.48,31.32a48.21,48.21,0,0,1,8.35,3.54"/><path class="cls-2" d="M54.39,29.1a52.07,52.07,0,0,1,9.67.07"/><path class="cls-2" d="M36,34.32a49.38,49.38,0,0,1,7.69-3.13"/><path class="cls-2" d="M19.75,44.88a61.71,61.71,0,0,1,6.61-5.23"/></g></g></svg>