<svg id="Layer_1" data-name="Layer 1" xmlns="http://www.w3.org/2000/svg" viewBox="0 0 1882.15 547.28"><defs><style>.cls-1{fill:none;stroke:#008bbc;stroke-width:0.28px;}</style></defs><path class="cls-1" d="M1901.63,111.84c-24.12-7.21-83.83-20.79-129.73-17.44-57.36,4.19-146,46.75-174.7,61.4s-71.71,53.72-133,71.16-94.52,11.16-158.41,0-131.68,9.07-172.09,53-168.5,158.72-223,164.65c-70.4,7.68-145.37,43.95-171.45,72.56S716.5,581.39,622,617.67s-231.42,25.11-275.09,0-43.68-40.47-105-50.93S179.34,570.22,108.29,594c-56.85,19-82.79,7.9-88.66,0" transform="translate(-19.52 -93.74)"/></svg>