<svg id="Layer_1" data-name="Layer 1" xmlns="http://www.w3.org/2000/svg" viewBox="0 0 1892.43 789.74"><defs><style>.cls-1{fill:#f0f2f2;}</style></defs><path class="cls-1" d="M-43.57,582c5.87,7.9,31.81,19,88.66,0,71.05-23.78,72.3-37.72,133.62-27.26s61.33,25.82,105,50.93,180.59,36.28,275.09,0S650,533.78,676.05,505.17,777.1,440.29,847.5,432.61c54.5-5.93,182.59-120.72,223-164.65s108.2-64.16,172.09-53,97.12,17.44,158.41,0,104.3-56.51,133-71.16,117.34-57.21,174.7-61.4c45.9-3.35,105.61,10.23,129.73,17.44L1828-142.9c-24.12-7.21-83.83-20.79-129.73-17.44-57.36,4.19-146,46.75-174.7,61.4s-71.71,53.72-133,71.16-94.52,11.16-158.41,0-131.68,9.07-172.09,53-168.5,158.72-223,164.65c-70.4,7.68-145.37,43.95-171.45,72.56s-22.75,64.22-117.25,100.5S317,388,273.28,362.93s-43.68-40.47-105-50.93-62.57,3.48-133.62,27.26c-56.85,19-82.79,7.9-88.66,0" transform="translate(54 160.86)"/></svg>