<svg id="Layer_1" data-name="Layer 1" xmlns="http://www.w3.org/2000/svg" viewBox="0 0 417.99 685.85"><defs><style>.cls-1{fill:none;stroke:#fff;stroke-miterlimit:10;stroke-width:0.99px;}</style></defs><path class="cls-1" d="M92.28,869.5c.71-12.71,24-71.72,15-93,0,0-2.46-10.74-30-55-14.68-23.62-20.35-41-26.23-77-6.91-42.32-16-90.49,4.69-132,15.92-32,64.68-61.71,72.94-113.41,5.47-34.31-17-42-15.3-84.73,1.72-43.14,26.76-89.11,64.09-112.71,59.36-37.54,132.26-7.42,170.41,23.32,46.51,37.47,59.17,90.17,80.84,180.34,11.33,47.15,16.81,71.28,8,98.73-17.7,55.17-39.15,63.65-50.28,113.46-9.76,43.63,1.79,85.84,27.17,113,18.7,20,17.51,18,30.39,37.83,19.78,30.44,17.6,68.84,12.38,97.17" transform="translate(-42.5 -183.68)"/></svg>