<svg id="Layer_1" data-name="Layer 1" xmlns="http://www.w3.org/2000/svg" viewBox="0 0 355.82 529.56"><defs><style>.cls-1{fill:#14a0a3;}</style></defs><g id="Layer_2" data-name="Layer 2"><g id="Layer_1-2" data-name="Layer 1-2"><g id="Layer_2-2" data-name="Layer 2-2"><g id="Layer_1-2-2" data-name="Layer 1-2-2"><path class="cls-1" d="M0,325.14H18.25a23,23,0,0,0,15.88-6.62,22.54,22.54,0,0,0,6.62-15.88V226.12a22.6,22.6,0,0,1,22.51-22.51h76.52a22.59,22.59,0,0,0,22.5-22.5v-36a22.59,22.59,0,0,0-22.5-22.5H63.26A22.6,22.6,0,0,1,40.75,100.1V23.57A22.59,22.59,0,0,0,18.25,1.06H0" transform="translate(0 -1.06)"/></g></g><g id="Layer_2-3" data-name="Layer 2-3"><g id="Layer_1-2-3" data-name="Layer 1-2-3"><path class="cls-1" d="M261.78,390.88a17.55,17.55,0,0,0-17.47-17.47H184.92a17.53,17.53,0,0,1-17.47-17.47V296.55A17.53,17.53,0,0,0,150,279.09H122a17.53,17.53,0,0,0-17.47,17.46v59.39A17.52,17.52,0,0,1,87.1,373.41H27.71a17.53,17.53,0,0,0-17.46,17.47v27.94a17.53,17.53,0,0,0,17.46,17.47H87.1a17.55,17.55,0,0,1,17.47,17.47v59.39A17.56,17.56,0,0,0,122,530.62h28a17.55,17.55,0,0,0,17.47-17.47V453.76a17.55,17.55,0,0,1,17.47-17.47h59.39a17.55,17.55,0,0,0,17.47-17.47Z" transform="translate(0 -1.06)"/></g></g><g id="Layer_2-4" data-name="Layer 2-4"><g id="Layer_1-2-4" data-name="Layer 1-2-4"><path class="cls-1" d="M355.78,240.06a11.37,11.37,0,0,0-11.32-11.32H306a11.38,11.38,0,0,1-11.32-11.33V178.92a11.38,11.38,0,0,0-11.33-11.32H265.2a11.37,11.37,0,0,0-11.32,11.32v38.49a11.37,11.37,0,0,1-11.33,11.33H204.06a11.36,11.36,0,0,0-11.32,11.32v18.11a11.36,11.36,0,0,0,11.32,11.32h38.49a11.37,11.37,0,0,1,11.33,11.33v38.49a11.38,11.38,0,0,0,11.32,11.33h18.11a11.38,11.38,0,0,0,11.33-11.33V280.82A11.37,11.37,0,0,1,306,269.49h38.5a11.37,11.37,0,0,0,11.32-11.32Z" transform="translate(0 -1.06)"/></g></g></g></g></svg>